# xmcd
#
# Track frame offsets: 
#        150
#        18820
#        45030
#        70017
#        88152
#        104242
#        116235
#        135025
#        157480
#        179195
#        193345
#        210837
#        237180
#
# Disc length: 3455 seconds
#
# Revision: 8
# Processed by: cddbd v1.5.2PL0 Copyright (c) Steve Scherf et al.
# Submitted via: ExactAudioCopy v0.95b4
#
DISCID=b40d7d0d
DTITLE=Eva Cassidy - Live At Blues Alley (96.1.2,3)
DYEAR=1996
DGENRE=Jazz
TTITLE0=Cheek To Cheek <I. Berlin>
TTITLE1=Stormy Monday <T. B. Walker>
TTITLE2=Bridge Over Troubled Water <P. Simon>
TTITLE3=Fine And Mellow <B. Holliday>
TTITLE4=People Get Ready <C. Mayfield>
TTITLE5=Blue Skies <I. Berlin>
TTITLE6=Tall Trees In Georgia <B. St. Marie>
TTITLE7=Fields Of Gold <Sting>
TTITLE8=Autumn Leaves <J. Mercer, J. Kozma, J. Prevert>
TTITLE9=Honeysuckle Rose <F. Waller>
TTITLE10=Take Me To The River <A. Green, M. L. Hodges>
TTITLE11=What A Wonderful World <G. D. Weiss, R. Thiele>
TTITLE12=Oh, Had I A Golden Thread <P. Seeger>
EXTD=
EXTT0=
EXTT1=
EXTT2=
EXTT3=
EXTT4=
EXTT5=
EXTT6=
EXTT7=
EXTT8=
EXTT9=
EXTT10=
EXTT11=
EXTT12=
PLAYORDER=
